<?xml version="1.0" encoding="utf-8"?>
<!-- Generator: Adobe Illustrator 25.2.1, SVG Export Plug-In . SVG Version: 6.00 Build 0)  -->
<svg version="1.1" id="Layer_1" xmlns="http://www.w3.org/2000/svg" xmlns:xlink="http://www.w3.org/1999/xlink" x="0px" y="0px"
	 viewBox="0 0 208.4 121.6" style="enable-background:new 0 0 208.4 121.6;" xml:space="preserve">
<style type="text/css">
	.st0{fill-rule:evenodd;clip-rule:evenodd;fill:#00ADEE;}
	.st1{fill-rule:evenodd;clip-rule:evenodd;fill:#0089CB;}
	.st2{fill-rule:evenodd;clip-rule:evenodd;fill:#003354;}
	.st3{fill-rule:evenodd;clip-rule:evenodd;fill:#004F79;}
	.st4{fill:#FFFFFF;}
	.st5{fill-rule:evenodd;clip-rule:evenodd;fill:#FFFFFF;}
	.st6{fill-rule:evenodd;clip-rule:evenodd;}
	.st7{fill:#003354;}
	.st8{fill:#004F79;}
	.st9{fill:#0089CB;}
	.st10{fill:#00ADEE;}
</style>
<path class="st0" d="M-26.52-335.46c-11.04,2.78-17.99,7.54-21.33,13.56l1.6-1.09c4.4-3.01,9.09-5,14.26-6.23
	c1.81-0.43,3.63-0.76,5.46-1.02V-335.46z"/>
<path class="st0" d="M-70.62-335.46c11.04,2.78,17.98,7.54,21.32,13.56l-1.6-1.09c-4.4-3.01-9.09-5-14.26-6.23
	c-1.81-0.43-3.64-0.76-5.46-1.02V-335.46z"/>
<path class="st1" d="M-17.82-330.21c-9.29,0.8-18.59,1.65-27.89,8.01c9.06-3.17,18.38-4.58,27.89-4.25L-17.82-330.21z"/>
<path class="st1" d="M-79.33-330.21c9.3,0.8,18.59,1.65,27.89,8.01c-9.06-3.17-18.37-4.58-27.89-4.25V-330.21z"/>
<path class="st2" d="M-11.19-324.97c-13.29-1.61-25.37,0.22-36.56,4.52h-1.71c0,6.47,0,30.35,0,43.04c0,0,1.17,0,1.71,0
	c7.08-2.28,14.27-3.85,21.58-4.5c-2.09-0.67-4.22-2.21-5.91-3.4c-0.14-0.11-0.29-0.21-0.43-0.3c-3.45-2.41-2.27-1.69-5.48-3.02
	c-1.23-0.51-4.63-1.75-5.61-2.24c-2.05-1.03-0.84-2.7,1.15-2.09c2.12,0.65,4.57,1.88,6.71,2.22c0.37,0.06,0.78,0.13,0.87-0.34
	c0.17-0.78-1.96-1.56-2.81-1.96c-2.49-1.15-3.74-1.68-6.33-3.03c-0.87-0.45-2.67-1.18-2.47-2.44c0.28-1.73,2.12-0.63,2.95-0.27
	c1.05,0.45,2.11,0.97,3.18,1.41c1.72,0.69,3.11,1.43,4.76,2.24c0.64,0.31,1.04,0.69,1.64,0.23c-0.03-0.71-0.74-1.03-1.34-1.51
	c-1.52-1.22-8.33-6.03-8.74-6.97c-0.49-1.11,0.51-2.83,2.64-1.32c2.17,1.54,4.89,3.76,7.08,5.44c0.57,0.44,1.14,0.88,1.72,1.32
	c0.74,0.56,1.58,0.48,1.08-0.58c-0.95-2.05-5.07-6.43-6.44-8.67c-0.5-0.81-0.56-1.51,0.37-2c1.63-0.87,3.76,2.45,5.28,4.18
	c1.32,1.51,2.75,3.31,4.21,4.92c0.83,0.92,1.68,1.76,2.54,2.46c0.53,0.44,1.26,1.08,1.84,1.11c1.02,0.07,1.15-0.89,1.15-1.43
	c0.02-4.19-1.49-6.23-0.71-8.24c0.74-1.9,1.89-2.42,2.7-0.07c1.51,4.35,1.75,8.42,3.52,12.71c0.24,0.61,0.41,1.32,0.52,2.02
	l5.34,3.5V-324.97z"/>
<path class="st2" d="M-86.01-324.97c13.29-1.61,25.37,0.22,36.56,4.52c0,14.35,0,28.69,0,43.04c-11.86-3.82-24-5.64-36.56-4.52
	l0-7.62l6.16-3.06c2.46,0.69,5.76-0.59,8.2-1.48c0.16-0.06,0.32-0.11,0.47-0.17c3.77-1.36,2.51-0.99,5.79-1.41
	c1.26-0.17,4.69-0.47,5.71-0.68c2.14-0.43,1.45-2.27-0.54-2.21c-2.12,0.08-4.67,0.59-6.72,0.38c-0.35-0.04-0.75-0.08-0.71-0.53
	c0.03-0.76,2.18-0.95,3.06-1.1c2.58-0.44,3.86-0.62,6.57-1.21c0.91-0.2,2.75-0.42,2.87-1.63c0.17-1.66-1.78-1.11-2.64-0.98
	c-1.08,0.16-2.18,0.38-3.28,0.51c-1.75,0.22-3.21,0.54-4.92,0.88c-0.66,0.13-1.12,0.38-1.56-0.2c0.2-0.65,0.93-0.76,1.6-1.05
	c1.7-0.74,9.15-3.48,9.76-4.24c0.72-0.9,0.23-2.73-2.1-1.87c-2.37,0.88-5.43,2.24-7.86,3.24c-0.64,0.26-1.27,0.53-1.9,0.78
	c-0.81,0.33-1.57,0.05-0.85-0.8c1.38-1.65,6.25-4.66,8.07-6.37c0.66-0.62,0.88-1.26,0.16-1.94c-1.29-1.2-4.07,1.32-5.89,2.54
	c-1.59,1.05-3.34,2.36-5.09,3.47c-0.99,0.63-1.98,1.21-2.94,1.64c-0.6,0.27-1.43,0.67-1.96,0.56c-0.95-0.2-0.84-1.1-0.71-1.6
	c1.02-3.85,2.91-5.35,2.7-7.4c-0.2-1.93-1.13-2.69-2.47-0.73c-2.47,3.62-3.69,7.31-6.38,10.81c-0.38,0.5-0.71,1.11-0.98,1.72
	l-1.62,0.53V-324.97z"/>
<rect x="-49.46" y="-320.45" class="st3" width="1.71" height="43.04"/>
<polygon class="st2" points="-86.01,-317.6 -86.01,-284.52 -55.4,-288.08 -52.69,-307.76 -57.61,-317.09 -75.42,-320.82 "/>
<path class="st2" d="M-26.45-281.89c3.02,0.27,9.17,0.18,12.24,0.13c3.08-0.04,3.08-0.04,3.06-2.9c-0.01-2.86-0.03-8.57-0.49-14.05
	c-0.45-5.48-1.34-10.74-3.73-13.99c-2.39-3.25-6.29-4.5-11.35-4.67c-5.06-0.17-11.28,0.73-14.76,3.22c-3.48,2.49-4.21,6.56-4.8,9.36
	c-0.59,2.8-1.04,4.33-0.92,6.79c0.11,2.46,0.79,5.85,2.68,8.33c1.89,2.49,5,4.07,7.12,4.92c2.12,0.85,3.25,0.96,4.45,1.06
	c1.19,0.1,2.45,0.19,3.02,0.55C-29.35-282.78-29.47-282.16-26.45-281.89"/>
<path class="st0" d="M-133.96-246.45H36.81c4.95,0,9,4.05,9,9v2.89c0,4.95-4.05,9-9,9h-170.77c-4.95,0-9-4.05-9-9v-2.89
	C-142.96-242.4-138.91-246.45-133.96-246.45"/>
<path class="st4" d="M-57.38-232.86c0,0.57-0.49,1.06-1.06,1.06c-0.57,0-1.06-0.49-1.06-1.06v-4.82c0-0.62,0-0.9-0.11-0.9
	c-0.09,0-0.29,0.22-0.62,0.6l-4.86,5.52c-0.38,0.44-0.97,0.66-1.61,0.66c-0.64,0-1.24-0.22-1.61-0.66l-4.86-5.52
	c-0.33-0.4-0.53-0.6-0.62-0.6c-0.11,0-0.11,0.29-0.11,0.9v4.82c0,0.57-0.49,1.06-1.06,1.06c-0.57,0-1.06-0.49-1.06-1.06v-6.45
	c0-1.17,0.73-2.12,1.9-2.12c0.71,0,1.26,0.4,1.72,0.91l5.08,5.79c0.13,0.15,0.4,0.35,0.62,0.35c0.22,0,0.49-0.2,0.62-0.35l5.06-5.79
	H-61c0.4-0.55,1.02-0.91,1.72-0.91c1.17,0,1.9,0.95,1.9,2.12V-232.86z"/>
<path class="st4" d="M-40.08-236.62L-40.08-236.62c0-1.06-0.44-2.7-2.47-2.7h-8.93c-2.03,0-2.47,1.63-2.47,2.7
	c0,1.06,0.44,2.7,2.47,2.7h8.93C-40.53-233.92-40.08-235.56-40.08-236.62 M-42.09-231.8h-10.07c-2.41-0.13-3.84-2.63-3.84-4.82
	c0-2.23,1.52-4.82,4.07-4.82h10.07c2.41,0.13,3.84,2.63,3.84,4.82C-38.03-234.39-39.55-231.8-42.09-231.8z"/>
<path class="st4" d="M-19.89-240.38c0,0.57-0.49,1.06-1.06,1.06h-6.54v6.45c0,0.57-0.49,1.06-1.06,1.06c-0.57,0-1.06-0.49-1.06-1.06
	v-6.45h-6.63c-0.53-0.04-0.97-0.51-0.97-1.06c0-0.57,0.49-1.06,1.06-1.06h15.2C-20.38-241.44-19.89-240.95-19.89-240.38"/>
<path class="st4" d="M-3.15-236.62L-3.15-236.62c0-1.06-0.44-2.7-2.47-2.7h-8.92c-2.03,0-2.47,1.63-2.47,2.7
	c0,1.06,0.44,2.7,2.47,2.7h8.92C-3.59-233.92-3.15-235.56-3.15-236.62 M-5.16-231.8h-10.07c-2.41-0.13-3.84-2.63-3.84-4.82
	c0-2.23,1.52-4.82,4.07-4.82h10.07c2.41,0.13,3.84,2.63,3.84,4.82C-1.1-234.39-2.62-231.8-5.16-231.8z"/>
<path class="st4" d="M16.95-233.81c0.31,0.24,0.6,0.55,0.6,0.95c0,0.57-0.49,1.06-1.06,1.06c-0.29,0-0.53-0.13-0.75-0.31
	c-2.39-1.77-5.08-3.45-8.26-3.45h-4.4c-0.38,0.07-0.68,0.38-0.68,0.82v1.88c0,0.57-0.51,1.06-1.06,1.06c-0.58,0-1.06-0.49-1.06-1.06
	v-2.12c0-1.48,1.17-2.7,2.67-2.7h11.71c0.44,0,0.84-0.35,0.84-0.82c0-0.44-0.4-0.82-0.84-0.82H1.33c-0.58,0-1.06-0.49-1.06-1.06
	c0-0.57,0.49-1.06,1.06-1.06h13.23c1.63,0,2.98,1.3,2.98,2.94c0,1.63-1.35,2.94-2.98,2.94h-0.09
	C15.27-235.07,16.09-234.48,16.95-233.81"/>
<path class="st4" d="M-133.44-241.35h13.23c1.63,0,2.98,1.3,2.98,2.94c0,1.63-1.35,2.94-2.98,2.94h-11.49
	c-0.38,0.07-0.68,0.38-0.68,0.82v1.88c0,0.57-0.51,1.06-1.06,1.06c-0.57,0-1.06-0.49-1.06-1.06v-2.12c0-1.48,1.15-2.7,2.65-2.7
	h11.73c0.44,0,0.84-0.35,0.84-0.82c0-0.44-0.4-0.82-0.84-0.82h-13.32c-0.57,0-1.06-0.49-1.06-1.06
	C-134.5-240.87-134.02-241.35-133.44-241.35"/>
<path class="st4" d="M-113.16-231.72L-113.16-231.72c-1.3,0-2.7-1.15-2.7-2.89v-1.99c0-0.8,0.44-0.99,1.41-0.99h14.82
	c0.57,0,1.06,0.49,1.06,1.06c0,0.57-0.49,1.06-1.06,1.06h-14.12v1.08c0,0.29,0.29,0.55,0.68,0.55h13.92c0.57,0,1.06,0.49,1.06,1.06
	c0,0.57-0.49,1.06-1.06,1.06H-113.16z M-114.8-241.35h15.66c0.57,0,1.06,0.49,1.06,1.06c0,0.57-0.49,1.06-1.06,1.06h-15.66
	c-0.57,0-1.06-0.49-1.06-1.06C-115.86-240.87-115.37-241.35-114.8-241.35z"/>
<path class="st4" d="M-92.64-241.35h12.88c0.57,0,1.06,0.49,1.06,1.06c0,0.57-0.49,1.06-1.06,1.06h-12.42
	c-2.03,0-2.47,1.63-2.47,2.7c0,1.06,0.44,2.7,2.47,2.7h12.42c0.57,0,1.06,0.49,1.06,1.06c0,0.57-0.49,1.06-1.06,1.06h-13.1
	c-2.41,0-3.84-2.63-3.84-4.82C-96.71-238.77-95.18-241.35-92.64-241.35"/>
<path class="st5" d="M34.85-235.07c0,0.88-0.68,0.86-1.29,0.86l-12.31,0c-1.61,0.01-1.45,2.22,0,2.22h13.02
	c0.94,0,1.59-0.36,2.13-0.81c1.62-1.35,1.11-4.25-1.08-4.96c-0.98-0.32-3.27-0.17-4.56-0.17c-0.57,0-7.89,0.07-8.26-0.04
	c-0.73-0.21-0.75-1.3,0.05-1.45c0.73-0.14,11.3,0.12,13.15-0.02c0.72-0.05,1.27-0.28,1.4-0.97c0.12-0.64-0.45-1.25-1.11-1.25H22.76
	c-0.43,0-0.89,0.15-1.19,0.31c-2.8,1.41-2.1,5.63,1.62,5.63l10.74,0C34.24-235.72,34.85-235.74,34.85-235.07"/>
<path class="st2" d="M-110.29-269.71H13.14c4.95,0,9,4.05,9,9v2.89c0,4.95-4.05,9-9,9h-123.42c-4.95,0-9-4.05-9-9v-2.89
	C-119.29-265.66-115.24-269.71-110.29-269.71"/>
<path class="st4" d="M3.31-254.38l0.4-1.91h5.22c0.17,0,0.3-0.03,0.38-0.1c0.08-0.07,0.14-0.19,0.18-0.38l0.29-1.36
	c0.01-0.04,0.01-0.09,0.01-0.16c0-0.17-0.13-0.26-0.38-0.26H5.57c-0.4,0-0.68-0.08-0.86-0.25c-0.18-0.17-0.27-0.41-0.27-0.72
	c0-0.12,0.01-0.26,0.04-0.42l0.54-2.53c0.13-0.58,0.34-1.01,0.64-1.29c0.3-0.28,0.77-0.42,1.4-0.42h6.09l-0.39,1.87H7.57
	c-0.15,0-0.27,0.03-0.33,0.1c-0.07,0.07-0.12,0.19-0.16,0.36l-0.27,1.29c-0.01,0.04-0.02,0.07-0.02,0.1
	c-0.01,0.03-0.01,0.06-0.01,0.09c0,0.14,0.11,0.22,0.32,0.22h3.92c0.41,0,0.7,0.09,0.88,0.26c0.18,0.17,0.27,0.41,0.27,0.72
	c0,0.13-0.01,0.26-0.04,0.41l-0.56,2.68c-0.13,0.58-0.34,1.01-0.64,1.29c-0.3,0.28-0.76,0.42-1.39,0.42H3.31z M-12.22-261.7
	c0.01-0.05,0.02-0.09,0.02-0.13c0-0.04,0.01-0.07,0.01-0.1c0-0.22-0.17-0.33-0.51-0.33h-2.73c-0.19,0-0.33,0.04-0.41,0.12
	c-0.08,0.08-0.15,0.23-0.2,0.45l-1.04,4.87c-0.02,0.1-0.03,0.16-0.03,0.19c0,0.2,0.14,0.3,0.42,0.3h2.73c0.23,0,0.4-0.04,0.49-0.12
	c0.1-0.08,0.16-0.2,0.2-0.38L-12.22-261.7z M-18.11-254.38c-0.49,0-0.85-0.09-1.06-0.26c-0.22-0.17-0.33-0.44-0.33-0.8
	c0-0.18,0.03-0.4,0.09-0.65l1.35-6.38c0.13-0.58,0.34-1.01,0.64-1.29c0.3-0.28,0.76-0.42,1.39-0.42h4.87c0.49,0,0.84,0.09,1.06,0.26
	c0.21,0.17,0.32,0.44,0.32,0.81c0,0.1-0.01,0.2-0.02,0.3c-0.01,0.11-0.03,0.22-0.05,0.33l-1.35,6.38c-0.13,0.58-0.34,1.01-0.64,1.29
	c-0.3,0.28-0.76,0.42-1.38,0.42H-18.11z M-42.51-254.38l0.41-1.91h5.22c0.17,0,0.3-0.03,0.38-0.1c0.08-0.07,0.14-0.19,0.18-0.38
	l0.29-1.36c0.01-0.04,0.01-0.09,0.01-0.16c0-0.17-0.13-0.26-0.38-0.26h-3.86c-0.4,0-0.68-0.08-0.86-0.25
	c-0.18-0.17-0.27-0.41-0.27-0.72c0-0.12,0.01-0.26,0.04-0.42l0.54-2.53c0.13-0.58,0.34-1.01,0.64-1.29c0.3-0.28,0.77-0.42,1.4-0.42
	h6.09l-0.39,1.87h-5.19c-0.15,0-0.26,0.03-0.33,0.1c-0.07,0.07-0.12,0.19-0.16,0.36l-0.27,1.29c-0.01,0.04-0.02,0.07-0.02,0.1
	c0,0.03-0.01,0.06-0.01,0.09c0,0.14,0.11,0.22,0.32,0.22h3.92c0.41,0,0.7,0.09,0.88,0.26c0.18,0.17,0.27,0.41,0.27,0.72
	c0,0.13-0.01,0.26-0.04,0.41l-0.56,2.68c-0.13,0.58-0.34,1.01-0.64,1.29c-0.3,0.28-0.76,0.42-1.39,0.42H-42.51z M-59.62-254.38
	l0.67-3.2c0.01-0.05,0.02-0.09,0.02-0.12c0-0.03,0.01-0.06,0.01-0.09c0-0.15-0.14-0.23-0.41-0.23h-3.17l-0.77,3.64h-2.2l1.52-7.16
	h2.2l-0.41,1.89h3.01c0.21,0,0.35-0.03,0.43-0.1c0.07-0.07,0.13-0.2,0.18-0.4l0.35-1.59c0.01-0.05,0.02-0.09,0.02-0.13
	c0-0.04,0.01-0.07,0.01-0.1c0-0.12-0.03-0.19-0.1-0.23c-0.07-0.04-0.18-0.06-0.35-0.06h-5.19l0.4-1.91h6.22
	c0.5,0,0.86,0.09,1.08,0.27c0.22,0.18,0.33,0.45,0.33,0.82c0,0.09-0.01,0.18-0.02,0.27c-0.01,0.1-0.03,0.2-0.05,0.3l-0.45,2.13
	c-0.11,0.5-0.3,0.86-0.58,1.06c-0.28,0.21-0.59,0.33-0.93,0.37c0.31,0.02,0.57,0.09,0.78,0.21c0.21,0.12,0.32,0.34,0.32,0.64
	c0,0.05,0,0.1,0,0.15c0,0.05-0.01,0.11-0.03,0.17l-0.71,3.4H-59.62z M-86.98-254.38c-0.5,0-0.86-0.09-1.07-0.26
	c-0.21-0.17-0.32-0.44-0.32-0.81c0-0.1,0-0.2,0.01-0.3c0.01-0.11,0.03-0.22,0.06-0.33l1.71-8.08h2.2l-1.55,7.32
	c-0.03,0.12-0.04,0.2-0.04,0.26c0,0.11,0.03,0.18,0.1,0.21c0.07,0.03,0.18,0.05,0.33,0.05h2.89c0.19,0,0.33-0.03,0.42-0.09
	c0.09-0.06,0.15-0.2,0.2-0.43l1.55-7.32h2.11l-1.71,8.08c-0.13,0.58-0.34,1.01-0.64,1.29c-0.3,0.28-0.76,0.42-1.38,0.42H-86.98z
	 M-108.92-254.38c-0.49,0-0.84-0.09-1.06-0.26c-0.21-0.17-0.32-0.44-0.32-0.81c0-0.1,0-0.2,0.01-0.3c0.01-0.1,0.03-0.21,0.06-0.34
	l1.34-6.38c0.13-0.58,0.34-1.01,0.64-1.29c0.3-0.28,0.76-0.42,1.38-0.42h5.51l-0.4,1.95h-4.43c-0.23,0-0.39,0.04-0.47,0.11
	c-0.08,0.07-0.15,0.22-0.2,0.44l-1.03,4.77c-0.01,0.05-0.02,0.09-0.02,0.12c0,0.03-0.01,0.07-0.01,0.11c0,0.11,0.03,0.18,0.1,0.23
	c0.07,0.05,0.19,0.07,0.38,0.07h4.45l-0.42,1.98H-108.92z"/>
<path class="st4" d="M-66.67-307.34l11.83,5.03l1.16,6.34l-8.89-3.94c0,0-1.39-0.54-2.16-2.63
	C-65.51-304.64-66.67-307.34-66.67-307.34"/>
<path class="st4" d="M-63.14-298.75l9.6,4.08l0.94,5.14l-7.22-3.2c0,0-1.13-0.44-1.76-2.13C-62.2-296.56-63.14-298.75-63.14-298.75"
	/>
<path class="st4" d="M-59.92-291.82l7.4,3.14l0.72,3.96l-5.56-2.47c0,0-0.87-0.34-1.35-1.64C-59.2-290.13-59.92-291.82-59.92-291.82
	"/>
<path class="st4" d="M-37.27-291.82l-7.39,3.14l-0.73,3.96l5.56-2.47c0,0,0.87-0.34,1.35-1.64C-38-290.13-37.27-291.82-37.27-291.82
	"/>
<path class="st4" d="M-28.71-316.69l-19.87,8.58l-19.87-8.58c0,0-2.09-0.39-1.16,2.09c0.93,2.47,2.09,5.79,2.09,5.79l18.94,7.9
	l18.94-7.9c0,0,1.16-3.32,2.09-5.79C-26.62-317.08-28.71-316.69-28.71-316.69"/>
<path class="st4" d="M-30.48-307.34l-11.83,5.03l-1.16,6.34l8.89-3.94c0,0,1.39-0.54,2.16-2.63
	C-31.64-304.64-30.48-307.34-30.48-307.34"/>
<path class="st4" d="M-34.05-298.75l-9.6,4.08l-0.94,5.14l7.22-3.2c0,0,1.13-0.44,1.76-2.13C-35-296.56-34.05-298.75-34.05-298.75"
	/>
<rect x="-6.54" y="-43.6" class="st6" width="230.4" height="230.4"/>
<path class="st0" d="M126.74,5.85c-11.04,2.78-17.99,7.54-21.33,13.56l1.6-1.1c4.4-3.01,9.09-5,14.26-6.23
	c1.81-0.43,3.63-0.76,5.46-1.02V5.85z"/>
<path class="st0" d="M82.64,5.85c11.04,2.78,17.98,7.54,21.32,13.56l-1.6-1.1c-4.4-3.01-9.09-5-14.26-6.23
	c-1.81-0.43-3.64-0.76-5.46-1.02V5.85z"/>
<path class="st0" d="M135.44,11.1c-9.29,0.8-18.59,1.65-27.89,8.01c9.06-3.17,18.38-4.58,27.89-4.25L135.44,11.1z"/>
<path class="st0" d="M73.93,11.1c9.3,0.8,18.59,1.65,27.89,8.01c-9.06-3.17-18.37-4.58-27.89-4.25V11.1z"/>
<path class="st5" d="M142.07,16.34c-13.29-1.61-25.37,0.22-36.56,4.52h-1.71c0,6.47,0,30.35,0,43.04c0,0,1.17,0,1.71,0
	c7.08-2.28,14.27-3.85,21.58-4.5c-2.09-0.67-4.22-2.21-5.91-3.4c-0.14-0.11-0.29-0.21-0.43-0.31c-3.45-2.41-2.27-1.69-5.48-3.02
	c-1.23-0.51-4.63-1.75-5.61-2.24c-2.05-1.03-0.84-2.7,1.15-2.09c2.12,0.65,4.57,1.88,6.71,2.22c0.37,0.06,0.78,0.13,0.87-0.34
	c0.17-0.78-1.96-1.56-2.81-1.96c-2.49-1.15-3.74-1.68-6.33-3.03c-0.87-0.45-2.67-1.18-2.47-2.44c0.28-1.73,2.12-0.63,2.95-0.27
	c1.05,0.45,2.11,0.97,3.18,1.41c1.72,0.69,3.11,1.43,4.76,2.24c0.64,0.31,1.04,0.69,1.64,0.23c-0.03-0.71-0.74-1.03-1.34-1.51
	c-1.52-1.22-8.33-6.03-8.74-6.97c-0.49-1.11,0.51-2.83,2.64-1.32c2.17,1.54,4.89,3.76,7.08,5.44c0.57,0.44,1.14,0.88,1.72,1.32
	c0.74,0.56,1.58,0.48,1.08-0.58c-0.95-2.05-5.07-6.43-6.44-8.67c-0.5-0.81-0.56-1.51,0.37-2c1.63-0.87,3.76,2.45,5.28,4.18
	c1.32,1.51,2.75,3.31,4.21,4.92c0.83,0.91,1.68,1.76,2.54,2.46c0.53,0.44,1.26,1.08,1.84,1.11c1.02,0.07,1.15-0.89,1.15-1.43
	c0.02-4.19-1.49-6.23-0.71-8.24c0.74-1.9,1.89-2.42,2.7-0.07c1.51,4.35,1.75,8.42,3.52,12.71c0.24,0.61,0.41,1.32,0.52,2.02
	l5.34,3.5V16.34z"/>
<path class="st5" d="M67.25,16.34c13.29-1.61,25.37,0.22,36.56,4.52c0,14.35,0,28.69,0,43.04c-11.86-3.82-24-5.64-36.56-4.52l0-7.62
	l6.16-3.06c2.46,0.69,5.76-0.59,8.2-1.48c0.16-0.06,0.32-0.11,0.47-0.17c3.77-1.36,2.51-0.99,5.79-1.41
	c1.26-0.17,4.69-0.47,5.71-0.68c2.14-0.43,1.45-2.27-0.54-2.21c-2.12,0.08-4.67,0.59-6.72,0.38c-0.35-0.04-0.75-0.08-0.71-0.53
	c0.03-0.76,2.18-0.95,3.06-1.1c2.58-0.44,3.86-0.62,6.57-1.21c0.91-0.2,2.75-0.42,2.87-1.63c0.17-1.66-1.78-1.11-2.64-0.98
	c-1.08,0.16-2.18,0.38-3.28,0.51c-1.75,0.22-3.21,0.54-4.92,0.88c-0.66,0.13-1.12,0.38-1.56-0.2c0.2-0.65,0.93-0.76,1.6-1.05
	c1.7-0.74,9.15-3.48,9.76-4.24c0.72-0.9,0.23-2.73-2.1-1.87c-2.37,0.88-5.43,2.24-7.86,3.24c-0.64,0.26-1.27,0.53-1.9,0.78
	c-0.81,0.33-1.57,0.05-0.85-0.8c1.38-1.65,6.25-4.66,8.07-6.37c0.66-0.62,0.88-1.26,0.16-1.94c-1.29-1.2-4.07,1.32-5.89,2.54
	c-1.59,1.05-3.34,2.36-5.09,3.47c-0.99,0.63-1.98,1.21-2.94,1.64c-0.6,0.27-1.43,0.67-1.96,0.56c-0.95-0.2-0.84-1.1-0.71-1.6
	c1.02-3.85,2.91-5.35,2.7-7.4c-0.2-1.93-1.13-2.69-2.47-0.73c-2.47,3.62-3.69,7.31-6.38,10.81c-0.38,0.5-0.71,1.11-0.98,1.72
	l-1.62,0.53V16.34z"/>
<rect x="103.8" y="20.86" class="st5" width="1.71" height="43.04"/>
<polygon class="st5" points="67.25,23.71 67.25,56.79 97.86,53.23 100.57,33.55 95.65,24.22 77.84,20.49 "/>
<path class="st5" d="M126.81,59.42c3.02,0.27,9.17,0.18,12.24,0.13c3.08-0.04,3.08-0.04,3.06-2.9c-0.01-2.86-0.03-8.57-0.49-14.05
	c-0.45-5.48-1.34-10.74-3.73-13.99c-2.39-3.25-6.29-4.5-11.35-4.67c-5.06-0.17-11.28,0.74-14.76,3.22c-3.48,2.49-4.21,6.56-4.8,9.36
	c-0.59,2.8-1.04,4.33-0.92,6.79c0.11,2.46,0.79,5.85,2.68,8.33c1.89,2.49,5,4.07,7.12,4.92c2.12,0.85,3.25,0.96,4.45,1.06
	c1.19,0.1,2.45,0.19,3.02,0.55C123.91,58.53,123.8,59.15,126.81,59.42"/>
<path class="st0" d="M19.3,94.86h170.77c4.95,0,9,4.05,9,9v2.89c0,4.95-4.05,9-9,9H19.3c-4.95,0-9-4.05-9-9v-2.89
	C10.3,98.91,14.35,94.86,19.3,94.86"/>
<path class="st4" d="M95.88,108.45c0,0.57-0.49,1.06-1.06,1.06c-0.57,0-1.06-0.49-1.06-1.06v-4.82c0-0.62,0-0.9-0.11-0.9
	c-0.09,0-0.29,0.22-0.62,0.6l-4.86,5.52c-0.38,0.44-0.97,0.66-1.61,0.66c-0.64,0-1.24-0.22-1.61-0.66l-4.86-5.52
	c-0.33-0.4-0.53-0.6-0.62-0.6c-0.11,0-0.11,0.29-0.11,0.9v4.82c0,0.57-0.49,1.06-1.06,1.06c-0.57,0-1.06-0.49-1.06-1.06v-6.45
	c0-1.17,0.73-2.12,1.9-2.12c0.71,0,1.26,0.4,1.72,0.91l5.08,5.79c0.13,0.15,0.4,0.35,0.62,0.35c0.22,0,0.49-0.2,0.62-0.35l5.06-5.79
	h0.02c0.4-0.55,1.02-0.91,1.72-0.91c1.17,0,1.9,0.95,1.9,2.12V108.45z"/>
<path class="st4" d="M113.18,104.69L113.18,104.69c0-1.06-0.44-2.7-2.47-2.7h-8.93c-2.03,0-2.47,1.63-2.47,2.7
	c0,1.06,0.44,2.7,2.47,2.7h8.93C112.73,107.39,113.18,105.75,113.18,104.69 M111.17,109.51h-10.07c-2.41-0.13-3.84-2.63-3.84-4.82
	c0-2.23,1.52-4.82,4.07-4.82h10.07c2.41,0.13,3.84,2.63,3.84,4.82C115.23,106.92,113.71,109.51,111.17,109.51z"/>
<path class="st4" d="M133.37,100.93c0,0.57-0.49,1.06-1.06,1.06h-6.54v6.45c0,0.57-0.49,1.06-1.06,1.06c-0.57,0-1.06-0.49-1.06-1.06
	v-6.45h-6.63c-0.53-0.04-0.97-0.51-0.97-1.06c0-0.57,0.49-1.06,1.06-1.06h15.2C132.88,99.87,133.37,100.36,133.37,100.93"/>
<path class="st4" d="M150.11,104.69L150.11,104.69c0-1.06-0.44-2.7-2.47-2.7h-8.92c-2.03,0-2.47,1.63-2.47,2.7
	c0,1.06,0.44,2.7,2.47,2.7h8.92C149.67,107.39,150.11,105.75,150.11,104.69 M148.1,109.51h-10.07c-2.41-0.13-3.84-2.63-3.84-4.82
	c0-2.23,1.52-4.82,4.07-4.82h10.07c2.41,0.13,3.84,2.63,3.84,4.82C152.17,106.92,150.64,109.51,148.1,109.51z"/>
<path class="st4" d="M170.21,107.5c0.31,0.24,0.6,0.55,0.6,0.95c0,0.57-0.49,1.06-1.06,1.06c-0.29,0-0.53-0.13-0.75-0.31
	c-2.39-1.77-5.08-3.45-8.26-3.45h-4.4c-0.38,0.07-0.68,0.38-0.68,0.82v1.88c0,0.57-0.51,1.06-1.06,1.06c-0.58,0-1.06-0.49-1.06-1.06
	v-2.12c0-1.48,1.17-2.7,2.67-2.7h11.71c0.44,0,0.84-0.35,0.84-0.82c0-0.44-0.4-0.82-0.84-0.82h-13.32c-0.58,0-1.06-0.49-1.06-1.06
	c0-0.57,0.49-1.06,1.06-1.06h13.23c1.63,0,2.98,1.3,2.98,2.94c0,1.63-1.35,2.94-2.98,2.94h-0.09
	C168.53,106.24,169.35,106.83,170.21,107.5"/>
<path class="st4" d="M19.82,99.96h13.23c1.63,0,2.98,1.3,2.98,2.94c0,1.63-1.35,2.94-2.98,2.94H21.56
	c-0.38,0.07-0.68,0.38-0.68,0.82v1.88c0,0.57-0.51,1.06-1.06,1.06c-0.57,0-1.06-0.49-1.06-1.06v-2.12c0-1.48,1.15-2.7,2.65-2.7
	h11.73c0.44,0,0.84-0.35,0.84-0.82c0-0.44-0.4-0.82-0.84-0.82H19.82c-0.57,0-1.06-0.49-1.06-1.06
	C18.76,100.44,19.24,99.96,19.82,99.96"/>
<path class="st4" d="M40.1,109.59L40.1,109.59c-1.3,0-2.7-1.15-2.7-2.89v-1.99c0-0.8,0.44-0.99,1.41-0.99h14.82
	c0.57,0,1.06,0.49,1.06,1.06c0,0.57-0.49,1.06-1.06,1.06H39.52v1.08c0,0.29,0.29,0.55,0.68,0.55h13.92c0.57,0,1.06,0.49,1.06,1.06
	c0,0.57-0.49,1.06-1.06,1.06H40.1z M38.46,99.96h15.66c0.57,0,1.06,0.49,1.06,1.06c0,0.57-0.49,1.06-1.06,1.06H38.46
	c-0.57,0-1.06-0.49-1.06-1.06C37.4,100.44,37.89,99.96,38.46,99.96z"/>
<path class="st4" d="M60.62,99.96H73.5c0.57,0,1.06,0.49,1.06,1.06c0,0.57-0.49,1.06-1.06,1.06H61.08c-2.03,0-2.47,1.63-2.47,2.7
	c0,1.06,0.44,2.7,2.47,2.7H73.5c0.57,0,1.06,0.49,1.06,1.06c0,0.57-0.49,1.06-1.06,1.06H60.4c-2.41,0-3.84-2.63-3.84-4.82
	C56.55,102.54,58.08,99.96,60.62,99.96"/>
<path class="st5" d="M188.11,106.24c0,0.88-0.68,0.86-1.29,0.86l-12.31,0c-1.61,0.01-1.45,2.22,0,2.22h13.02
	c0.94,0,1.59-0.36,2.13-0.81c1.62-1.35,1.11-4.25-1.08-4.96c-0.98-0.32-3.27-0.17-4.56-0.17c-0.57,0-7.89,0.07-8.26-0.04
	c-0.73-0.21-0.75-1.3,0.05-1.45c0.73-0.14,11.3,0.12,13.15-0.02c0.72-0.05,1.27-0.28,1.4-0.97c0.12-0.64-0.45-1.25-1.11-1.25h-13.24
	c-0.43,0-0.89,0.15-1.19,0.31c-2.8,1.41-2.1,5.63,1.62,5.63l10.74,0C187.5,105.59,188.11,105.57,188.11,106.24"/>
<path class="st5" d="M42.97,71.6H166.4c4.95,0,9,4.05,9,9v2.89c0,4.95-4.05,9-9,9H42.97c-4.95,0-9-4.05-9-9V80.6
	C33.98,75.65,38.02,71.6,42.97,71.6"/>
<path class="st7" d="M156.57,86.93l0.4-1.91h5.22c0.17,0,0.3-0.03,0.38-0.1c0.08-0.07,0.14-0.19,0.18-0.38l0.29-1.36
	c0.01-0.04,0.01-0.09,0.01-0.16c0-0.17-0.13-0.26-0.38-0.26h-3.86c-0.4,0-0.68-0.08-0.86-0.25c-0.18-0.17-0.27-0.41-0.27-0.72
	c0-0.12,0.01-0.26,0.04-0.42l0.54-2.53c0.13-0.58,0.34-1.01,0.64-1.29c0.3-0.28,0.77-0.42,1.4-0.42h6.09L166.02,79h-5.19
	c-0.15,0-0.27,0.03-0.33,0.1c-0.07,0.07-0.12,0.19-0.16,0.36l-0.27,1.29c-0.01,0.04-0.02,0.07-0.02,0.1
	c-0.01,0.03-0.01,0.06-0.01,0.09c0,0.14,0.11,0.22,0.32,0.22h3.92c0.41,0,0.7,0.09,0.88,0.26c0.18,0.17,0.27,0.41,0.27,0.72
	c0,0.13-0.01,0.26-0.04,0.41l-0.56,2.68c-0.13,0.58-0.34,1.01-0.64,1.29c-0.3,0.28-0.76,0.42-1.39,0.42H156.57z M141.04,79.61
	c0.01-0.05,0.02-0.09,0.02-0.13c0-0.04,0.01-0.07,0.01-0.1c0-0.22-0.17-0.33-0.51-0.33h-2.73c-0.19,0-0.33,0.04-0.41,0.12
	c-0.08,0.08-0.15,0.23-0.2,0.45l-1.04,4.87c-0.02,0.1-0.03,0.16-0.03,0.19c0,0.2,0.14,0.3,0.42,0.3h2.73c0.23,0,0.4-0.04,0.49-0.12
	c0.1-0.08,0.16-0.2,0.2-0.38L141.04,79.61z M135.15,86.93c-0.49,0-0.85-0.09-1.06-0.26c-0.22-0.17-0.33-0.44-0.33-0.8
	c0-0.18,0.03-0.4,0.09-0.65l1.35-6.38c0.13-0.58,0.34-1.01,0.64-1.29c0.3-0.28,0.76-0.42,1.39-0.42h4.87c0.49,0,0.84,0.09,1.06,0.26
	c0.21,0.17,0.32,0.44,0.32,0.81c0,0.1-0.01,0.2-0.02,0.3c-0.01,0.11-0.03,0.22-0.05,0.33l-1.35,6.38c-0.13,0.58-0.34,1.01-0.64,1.29
	c-0.3,0.28-0.76,0.42-1.38,0.42H135.15z M110.75,86.93l0.41-1.91h5.22c0.17,0,0.3-0.03,0.38-0.1c0.08-0.07,0.14-0.19,0.18-0.38
	l0.29-1.36c0.01-0.04,0.01-0.09,0.01-0.16c0-0.17-0.13-0.26-0.38-0.26h-3.86c-0.4,0-0.68-0.08-0.86-0.25
	c-0.18-0.17-0.27-0.41-0.27-0.72c0-0.12,0.01-0.26,0.04-0.42l0.54-2.53c0.13-0.58,0.34-1.01,0.64-1.29c0.3-0.28,0.77-0.42,1.4-0.42
	h6.09L120.2,79H115c-0.15,0-0.26,0.03-0.33,0.1c-0.07,0.07-0.12,0.19-0.16,0.36l-0.27,1.29c-0.01,0.04-0.02,0.07-0.02,0.1
	c0,0.03-0.01,0.06-0.01,0.09c0,0.14,0.11,0.22,0.32,0.22h3.92c0.41,0,0.7,0.09,0.88,0.26s0.27,0.41,0.27,0.72
	c0,0.13-0.01,0.26-0.04,0.41l-0.56,2.68c-0.13,0.58-0.34,1.01-0.64,1.29c-0.3,0.28-0.76,0.42-1.39,0.42H110.75z M93.64,86.93
	l0.67-3.2c0.01-0.05,0.02-0.09,0.02-0.12c0-0.03,0.01-0.06,0.01-0.09c0-0.15-0.14-0.23-0.41-0.23h-3.17L90,86.93h-2.2l1.52-7.16h2.2
	l-0.41,1.89h3.01c0.21,0,0.35-0.03,0.43-0.1c0.07-0.07,0.13-0.2,0.18-0.4l0.35-1.59c0.01-0.05,0.02-0.09,0.02-0.13
	c0-0.04,0.01-0.07,0.01-0.1c0-0.12-0.03-0.19-0.1-0.23c-0.07-0.04-0.18-0.06-0.35-0.06h-5.19l0.4-1.91h6.22
	c0.5,0,0.86,0.09,1.08,0.27c0.22,0.18,0.33,0.45,0.33,0.82c0,0.09-0.01,0.18-0.02,0.27c-0.01,0.1-0.03,0.2-0.05,0.3l-0.45,2.13
	c-0.11,0.5-0.3,0.86-0.58,1.06c-0.28,0.21-0.59,0.33-0.93,0.37c0.31,0.02,0.57,0.09,0.78,0.21c0.21,0.12,0.32,0.34,0.32,0.64
	c0,0.05,0,0.1,0,0.15c0,0.05-0.01,0.11-0.03,0.17l-0.71,3.4H93.64z M66.28,86.93c-0.5,0-0.86-0.09-1.07-0.26
	c-0.21-0.17-0.32-0.44-0.32-0.81c0-0.1,0-0.2,0.01-0.3c0.01-0.11,0.03-0.22,0.06-0.33l1.71-8.08h2.2l-1.55,7.32
	c-0.03,0.12-0.04,0.2-0.04,0.26c0,0.11,0.03,0.18,0.1,0.21c0.07,0.03,0.18,0.05,0.33,0.05h2.89c0.19,0,0.33-0.03,0.42-0.09
	c0.09-0.06,0.15-0.21,0.2-0.43l1.55-7.32h2.11l-1.71,8.08c-0.13,0.58-0.34,1.01-0.64,1.29c-0.3,0.28-0.76,0.42-1.38,0.42H66.28z
	 M44.34,86.93c-0.49,0-0.84-0.09-1.06-0.26c-0.21-0.17-0.32-0.44-0.32-0.81c0-0.1,0-0.2,0.01-0.3c0.01-0.1,0.03-0.21,0.06-0.34
	l1.34-6.38c0.13-0.58,0.34-1.01,0.64-1.29c0.3-0.28,0.76-0.42,1.38-0.42h5.51l-0.4,1.95h-4.43c-0.23,0-0.39,0.04-0.47,0.11
	c-0.08,0.07-0.15,0.22-0.2,0.44l-1.03,4.77c-0.01,0.05-0.02,0.09-0.02,0.12c0,0.03-0.01,0.07-0.01,0.11c0,0.11,0.03,0.18,0.1,0.23
	c0.07,0.05,0.19,0.07,0.38,0.07h4.45l-0.42,1.98H44.34z"/>
<path class="st8" d="M86.62,33.92l11.81,5.01l1.16,6.33l-8.88-3.93c0,0-1.39-0.54-2.16-2.62C87.78,36.62,86.62,33.92,86.62,33.92"/>
<path class="st9" d="M90.14,42.49l9.59,4.07l0.94,5.13l-7.21-3.19c0,0-1.13-0.44-1.75-2.13C91.08,44.68,90.14,42.49,90.14,42.49"/>
<path class="st10" d="M93.35,49.41l7.39,3.13l0.72,3.95l-5.55-2.46c0,0-0.87-0.34-1.35-1.64C94.08,51.09,93.35,49.41,93.35,49.41"/>
<path class="st10" d="M115.98,49.41l-7.39,3.13l-0.72,3.95l5.55-2.46c0,0,0.87-0.34,1.35-1.64
	C115.25,51.09,115.98,49.41,115.98,49.41"/>
<path class="st7" d="M124.53,24.6l-19.84,8.56L84.84,24.6c0,0-2.08-0.39-1.16,2.08c0.93,2.47,2.09,5.78,2.09,5.78l18.92,7.88
	l18.92-7.88c0,0,1.16-3.31,2.08-5.78C126.61,24.21,124.53,24.6,124.53,24.6"/>
<path class="st8" d="M122.75,33.92l-11.81,5.01l-1.16,6.33l8.88-3.93c0,0,1.39-0.54,2.16-2.62
	C121.6,36.62,122.75,33.92,122.75,33.92"/>
<path class="st9" d="M119.19,42.49l-9.59,4.07l-0.94,5.13l7.21-3.19c0,0,1.13-0.44,1.75-2.13
	C118.25,44.68,119.19,42.49,119.19,42.49"/>
</svg>
